<!-- Generator: Adobe Illustrator 16.0.0, SVG Export Plug-In . SVG Version: 6.00 Build 0)  -->

<svg
   version="1.1"
   id="Layer_1"
   x="0px"
   y="0px"
   width="600"
   height="600"
   viewBox="0 0 599.99999 599.99997"
   enable-background="new 0 0 841.89 595.28"
   xml:space="preserve"
   xmlns:inkscape="http://www.inkscape.org/namespaces/inkscape"
   xmlns:sodipodi="http://sodipodi.sourceforge.net/DTD/sodipodi-0.dtd"
   xmlns="http://www.w3.org/2000/svg"
   xmlns:svg="http://www.w3.org/2000/svg"><defs
   id="defs3" />
<g
   id="g3"
   transform="translate(-98.183308,-3.6128679)">
	<path
   fill="#1c4483"
   d="M 355.121,264.823 C 195.214,138.306 408.903,85.333 543.859,150.58 484.001,85.595 399.955,68.09 330.981,82.462 335.179,56.863 323.518,30.203 299.725,16.47 269.017,-1.264 229.75,9.258 212.026,39.965 c -17.73,30.708 -7.202,69.974 23.499,87.696 0.875,0.51 1.765,0.986 2.658,1.445 -65.093,51.194 -72.875,115.865 -25.706,153.177 39.129,30.95 97.043,22.227 145.053,3.669 8.726,-3.374 7.821,-12.673 -2.409,-21.129"
   id="path1" />
	<path
   fill="#2dabe2"
   d="M 361.689,337.197 C 332.08,538.933 179.364,380.369 168.381,230.859 c -26.346,84.342 0.51,165.884 47.451,218.425 -24.267,9.167 -41.522,32.597 -41.53,60.066 0,35.454 28.746,64.194 64.201,64.194 35.454,0 64.2,-28.74 64.2,-64.194 0,-1.013 -0.033,-2.02 -0.08,-3.024 76.884,30.775 136.782,5.184 145.511,-54.329 7.238,-49.357 -29.276,-95.149 -69.349,-127.445 -7.285,-5.872 -14.887,-0.446 -17.096,12.645"
   id="path2" />
	<path
   fill="#0772b9"
   d="m 421.083,295.321 c 189.514,-75.231 128.544,136.32 4.566,220.581 86.209,-19.361 143.399,-83.38 165.435,-150.306 20.063,16.433 48.979,19.663 72.78,5.926 30.693,-17.721 41.223,-56.989 23.5,-87.697 -17.732,-30.7 -56.993,-41.222 -87.701,-23.495 -0.876,0.511 -1.739,1.034 -2.575,1.576 -11.797,-81.967 -63.913,-121.037 -119.809,-98.85 -46.369,18.414 -67.768,72.929 -75.696,123.791 -1.445,9.24 7.059,13.11 19.5,8.474"
   id="path3" />
</g>
</svg>